<?xml version="1.0" standalone="no"?>
<!DOCTYPE svg PUBLIC "-//W3C//DTD SVG 20010904//EN"
 "http://www.w3.org/TR/2001/REC-SVG-20010904/DTD/svg10.dtd">
<svg version="1.0" xmlns="http://www.w3.org/2000/svg"
 width="2653.000000pt" height="2653.000000pt" viewBox="0 0 2653.000000 2653.000000"
 preserveAspectRatio="xMidYMid meet">

<g transform="translate(0.000000,2653.000000) scale(0.100000,-0.100000)"
fill="#000000" stroke="none">
<path d="M14303 25205 c-53 -23 -67 -55 -60 -136 7 -80 40 -161 93 -225 37
-45 155 -128 264 -185 35 -19 84 -52 107 -75 35 -33 43 -47 43 -77 0 -54 -40
-92 -178 -170 -143 -80 -210 -131 -257 -195 -83 -115 -99 -284 -37 -416 38
-82 114 -159 209 -214 38 -21 100 -58 139 -80 88 -51 124 -91 124 -137 0 -50
-42 -91 -161 -159 -203 -115 -264 -169 -315 -280 -30 -67 -42 -178 -22 -216 7
-14 30 -33 51 -43 31 -16 42 -17 73 -7 44 15 74 61 74 113 0 90 50 142 230
243 210 117 274 199 274 349 0 65 -4 89 -24 130 -33 69 -100 131 -204 190
-215 122 -266 169 -274 254 -11 119 31 178 192 268 233 131 298 201 312 342
17 158 -69 267 -314 397 -131 69 -192 139 -192 219 0 51 -26 94 -65 111 -41
17 -42 17 -82 -1z"/>
<path d="M10178 25149 c-158 -23 -311 -101 -429 -218 -208 -208 -278 -505
-184 -781 41 -121 90 -197 189 -295 138 -137 295 -210 478 -222 72 -5 92 -3
113 11 72 47 60 161 -18 185 -18 5 -62 12 -98 15 -182 14 -360 140 -441 312
-106 225 -56 474 130 646 97 89 241 147 367 148 78 0 126 65 102 137 -21 66
-76 82 -209 62z"/>
<path d="M16605 25145 c-63 -31 -60 5 -63 -740 -2 -633 -1 -682 15 -715 10
-19 29 -40 43 -47 19 -10 182 -13 708 -13 741 0 725 -1 750 55 9 19 12 202 12
715 l0 690 -29 32 -29 33 -689 2 c-595 2 -692 1 -718 -12z m1255 -750 l0 -555
-555 0 -555 0 0 555 0 555 555 0 555 0 0 -555z"/>
<path d="M3575 25016 c-16 -8 -274 -259 -572 -558 l-543 -543 0 -48 c0 -37 5
-53 24 -72 29 -29 66 -40 104 -30 18 4 207 186 574 553 580 579 576 574 552
640 -19 52 -89 81 -139 58z"/>
<path d="M22163 25014 c-39 -20 -67 -74 -58 -114 4 -16 20 -41 37 -55 l30 -25
783 0 783 0 30 25 c39 32 48 72 28 119 -29 68 2 66 -843 66 -668 0 -762 -2
-790 -16z"/>
<path d="M5805 23774 c-969 -261 -915 -241 -915 -330 0 -53 -79 31 716 -758
570 -566 581 -576 620 -576 45 0 81 21 94 56 8 21 197 720 270 999 16 61 65
245 109 410 45 165 81 314 81 332 0 39 -34 80 -75 92 -25 7 -193 -36 -900
-225z m721 -41 c-7 -25 -192 -715 -226 -843 -91 -348 -125 -470 -130 -470 -9
0 -974 969 -970 973 6 5 1300 354 1318 356 8 1 11 -6 8 -16z"/>
<path d="M20914 23521 c-12 -5 -31 -22 -43 -37 l-21 -27 0 -909 0 -910 35 -35
c31 -31 40 -35 73 -30 44 6 1554 873 1590 913 15 17 22 38 22 64 0 26 -7 47
-22 64 -30 32 -1545 904 -1584 911 -16 2 -39 0 -50 -4z m789 -651 c301 -173
547 -317 547 -320 0 -3 -12 -12 -28 -21 -78 -44 -399 -230 -737 -426 -209
-121 -390 -225 -402 -232 l-23 -12 0 691 0 690 48 -27 c26 -16 294 -170 595
-343z"/>
<path d="M11718 22970 c-169 -29 -291 -93 -419 -220 -104 -104 -156 -189 -199
-325 -59 -191 -28 -426 81 -613 47 -80 180 -210 264 -260 277 -162 622 -138
870 61 282 226 367 615 206 942 -84 170 -232 305 -407 371 -129 49 -273 65
-396 44z m304 -233 c171 -62 299 -199 352 -376 21 -72 21 -230 0 -302 -26 -89
-75 -170 -144 -239 -111 -111 -239 -164 -395 -164 -118 0 -209 28 -309 94
-289 194 -331 605 -86 850 72 73 173 131 266 155 86 22 230 14 316 -18z"/>
<path d="M2314 22070 c-11 -4 -76 -67 -144 -138 l-123 -131 -121 115 c-67 64
-134 122 -150 131 -62 33 -133 -11 -143 -88 l-6 -42 138 -134 139 -133 -35
-38 c-19 -20 -73 -78 -121 -128 -47 -50 -89 -101 -93 -113 -25 -81 58 -163
134 -132 15 7 81 68 145 137 65 68 121 124 124 124 4 0 64 -54 134 -119 69
-65 139 -121 153 -125 60 -15 125 32 127 92 2 50 -12 68 -142 190 l-130 122
116 123 c116 123 149 170 138 204 -14 44 -29 63 -59 78 -37 17 -50 18 -81 5z"/>
<path d="M16252 21625 c-39 -32 -48 -72 -28 -119 28 -68 -2 -66 842 -66 838 0
806 -2 838 65 21 44 11 89 -26 120 l-30 25 -783 0 -783 0 -30 -25z"/>
<path d="M24856 21167 c-28 -28 -87 -89 -130 -135 l-79 -83 -51 48 c-200 191
-215 203 -250 203 -47 0 -79 -16 -99 -50 -20 -33 -21 -66 -4 -97 7 -12 66 -72
132 -134 66 -62 121 -117 123 -121 2 -4 -50 -65 -115 -134 -124 -132 -131
-142 -132 -187 -1 -44 56 -97 105 -97 37 0 46 7 171 136 l132 136 135 -126
c124 -116 138 -126 173 -126 48 0 81 22 100 67 24 58 6 85 -137 218 l-130 120
38 40 c20 22 74 79 119 126 45 47 87 98 92 112 26 66 -27 137 -101 137 -36 0
-47 -6 -92 -53z"/>
<path d="M9594 21200 c-11 -4 -74 -65 -140 -134 -65 -69 -123 -126 -127 -126
-5 0 -65 53 -133 117 -69 65 -135 121 -147 126 -60 22 -125 -23 -134 -94 l-6
-42 138 -134 139 -133 -35 -37 c-19 -21 -73 -79 -121 -129 -47 -50 -89 -101
-93 -113 -25 -80 59 -163 134 -131 16 6 81 67 146 136 64 68 120 124 123 124
4 0 64 -54 134 -119 69 -65 139 -121 153 -125 60 -15 125 32 127 92 2 50 -12
68 -137 186 -69 65 -125 122 -125 128 0 5 51 63 113 129 61 65 117 131 124
146 21 50 -7 114 -59 132 -36 13 -45 13 -74 1z"/>
<path d="M20480 20646 c-118 -26 -201 -90 -252 -194 -79 -160 -33 -353 109
-456 142 -103 332 -91 462 30 83 77 115 151 115 264 0 72 -4 94 -28 148 -71
154 -247 244 -406 208z m155 -225 c38 -22 75 -86 75 -131 0 -47 -37 -109 -79
-134 -46 -27 -122 -27 -159 0 -89 66 -97 179 -19 252 47 44 119 49 182 13z"/>
<path d="M6123 20519 c-115 -22 -221 -106 -269 -212 -24 -53 -28 -75 -28 -147
0 -110 32 -186 110 -260 122 -115 279 -136 427 -58 70 37 120 92 156 167 22
48 26 69 26 151 0 82 -4 103 -26 150 -54 113 -151 187 -273 209 -66 12 -64 12
-123 0z m147 -228 c43 -31 70 -80 70 -128 0 -145 -167 -212 -267 -107 -54 58
-56 142 -5 202 50 60 143 75 202 33z"/>
<path d="M13872 20373 c-16 -14 -833 -1420 -898 -1545 -24 -47 -18 -86 20
-124 l34 -34 896 0 c964 0 949 -1 976 50 31 57 30 59 -431 858 -244 422 -454
777 -466 790 -28 28 -101 31 -131 5z m353 -793 c147 -256 298 -517 335 -580
l68 -115 -686 -3 c-377 -1 -687 0 -689 2 -3 2 150 272 338 599 286 495 345
592 355 579 6 -10 132 -226 279 -482z"/>
<path d="M2968 19960 c-27 -5 -83 -20 -127 -35 -293 -97 -506 -383 -514 -688
-2 -77 -1 -79 31 -108 42 -37 98 -40 138 -6 23 20 28 35 39 123 20 154 69 256
169 354 207 204 540 211 753 17 109 -100 168 -220 182 -371 8 -83 11 -92 40
-118 45 -40 101 -39 143 3 l31 30 -6 97 c-24 438 -446 775 -879 702z"/>
<path d="M18985 19523 c-385 -82 -656 -456 -605 -834 50 -371 334 -645 700
-675 61 -5 83 -3 109 10 44 23 66 75 51 121 -18 54 -40 66 -137 77 -102 11
-175 34 -251 80 -314 191 -359 621 -91 878 89 86 242 149 359 150 95 0 150 72
113 147 -10 21 -29 43 -43 50 -33 17 -118 15 -205 -4z"/>
<path d="M22068 19524 c-15 -8 -32 -23 -38 -34 -6 -12 -10 -259 -10 -717 0
-646 2 -700 18 -719 9 -12 27 -27 39 -33 15 -8 221 -11 703 -11 482 0 688 3
703 11 12 6 30 21 39 33 16 19 18 73 18 721 0 648 -2 702 -18 721 -9 12 -27
27 -39 33 -15 8 -221 11 -705 11 -583 -1 -687 -3 -710 -16z m1262 -749 l0
-555 -550 0 -550 0 0 555 0 555 550 0 550 0 0 -555z"/>
<path d="M7160 18867 c-14 -7 -33 -28 -42 -47 -17 -32 -18 -87 -18 -703 0
-732 -1 -720 59 -752 27 -14 107 -15 722 -13 l691 3 29 33 29 32 0 696 0 696
-34 34 -34 34 -688 0 c-531 0 -695 -3 -714 -13z m1260 -752 l0 -555 -555 0
-555 0 0 555 0 555 555 0 555 0 0 -555z"/>
<path d="M10573 18860 c-42 -25 -55 -72 -42 -150 26 -160 99 -243 324 -370
148 -83 175 -110 175 -171 0 -41 -4 -50 -38 -80 -20 -19 -93 -65 -161 -104
-197 -111 -276 -205 -300 -356 -19 -120 16 -245 94 -337 38 -44 158 -127 265
-183 35 -19 81 -50 102 -70 33 -31 38 -42 38 -81 0 -40 -5 -50 -39 -81 -21
-19 -69 -51 -107 -72 -253 -139 -332 -230 -358 -413 -12 -81 34 -142 107 -142
59 0 93 39 102 118 12 104 48 141 250 254 130 73 186 123 224 200 27 52 31 72
31 137 0 159 -64 233 -324 376 -79 43 -141 96 -163 139 -21 40 -20 143 0 183
23 44 81 91 184 148 184 102 236 146 279 240 18 38 24 67 24 125 0 147 -64
229 -271 345 -185 104 -222 143 -235 246 -8 68 -17 85 -54 104 -39 20 -69 19
-107 -5z"/>
<path d="M17283 17844 l-133 -137 -122 115 c-68 63 -133 120 -145 126 -54 29
-114 5 -140 -55 -24 -58 -7 -85 136 -218 l130 -120 -37 -40 c-21 -22 -74 -79
-119 -126 -45 -47 -87 -99 -93 -114 -25 -66 28 -135 102 -135 45 0 34 -9 222
188 l78 82 134 -125 c129 -121 135 -125 177 -125 53 0 93 33 103 85 9 48 -8
71 -141 195 -66 62 -121 116 -123 121 -2 5 50 66 115 135 65 69 122 135 126
147 23 62 -32 137 -101 137 -34 0 -46 -9 -169 -136z"/>
<path d="M2337 17046 c-71 -66 -33 -167 69 -181 27 -3 59 -8 72 -11 46 -9 106
-81 182 -214 41 -73 95 -155 120 -181 60 -64 144 -102 225 -103 148 -1 243 74
355 278 104 190 146 226 260 226 106 0 148 -38 256 -229 38 -68 90 -145 116
-172 150 -156 379 -131 507 55 16 22 52 84 81 136 90 164 132 200 244 215 67
9 106 47 106 105 0 33 -6 48 -30 72 -30 30 -33 30 -110 26 -151 -9 -274 -100
-370 -276 -68 -124 -119 -201 -143 -213 -11 -7 -38 -12 -59 -12 -55 0 -81 29
-169 184 -88 156 -164 241 -254 285 -56 27 -68 29 -175 29 -105 0 -120 -2
-175 -28 -102 -48 -174 -131 -285 -329 -49 -88 -93 -137 -124 -140 -78 -5
-106 19 -183 157 -31 55 -76 128 -100 163 -81 115 -202 182 -328 182 -52 0
-66 -4 -88 -24z"/>
<path d="M19214 16451 c-36 -16 -64 -60 -64 -103 0 -52 43 -98 92 -98 107 0
159 -45 258 -219 123 -218 196 -280 336 -289 150 -9 250 63 359 258 105 189
148 234 236 246 114 16 184 -40 291 -232 78 -141 127 -199 199 -238 69 -38
172 -47 250 -21 80 27 167 119 248 265 35 63 75 129 88 147 31 40 115 83 164
83 78 0 129 82 94 150 -25 49 -75 65 -154 52 -139 -23 -246 -105 -331 -253
-22 -38 -58 -100 -80 -138 -49 -85 -80 -111 -131 -111 -57 0 -93 38 -179 191
-117 206 -209 285 -364 311 -123 20 -249 -18 -343 -105 -52 -48 -98 -114 -169
-241 -67 -122 -102 -156 -158 -156 -38 0 -48 5 -82 43 -22 23 -61 84 -89 135
-120 223 -227 311 -400 327 -27 3 -60 1 -71 -4z"/>
<path d="M15040 15566 c-281 -61 -491 -247 -581 -517 -125 -373 65 -790 429
-943 99 -42 187 -59 302 -58 129 0 231 25 350 84 69 35 103 60 180 138 107
107 149 171 193 297 26 75 31 106 35 214 4 105 1 140 -17 209 -87 344 -368
573 -716 586 -71 2 -133 -1 -175 -10z m262 -207 c193 -40 364 -201 422 -398
21 -72 21 -230 0 -302 -53 -182 -205 -331 -389 -385 -90 -26 -223 -24 -314 6
-401 129 -523 628 -226 925 134 134 324 192 507 154z"/>
<path d="M5032 14785 c-65 -28 -63 11 -60 -979 3 -890 3 -895 24 -923 29 -39
83 -52 129 -30 19 9 223 125 452 258 1214 702 1100 632 1113 677 15 48 2 82
-42 115 -42 31 -1490 865 -1535 883 -39 17 -40 17 -81 -1z m783 -640 c303
-174 553 -319 557 -323 5 -6 -1146 -678 -1181 -690 -8 -3 -11 203 -11 688 l0
692 43 -25 c23 -14 290 -167 592 -342z"/>
<path d="M1474 14696 c-69 -30 -87 -115 -35 -167 l29 -29 791 0 790 0 26 23
c35 29 45 96 21 133 -37 55 -22 54 -838 54 -612 -1 -759 -3 -784 -14z"/>
<path d="M9978 14580 c-329 -39 -595 -285 -662 -612 -30 -144 -19 -206 42
-241 29 -17 39 -18 73 -8 50 15 79 59 79 121 1 107 48 233 124 326 203 250
565 279 808 65 100 -89 163 -215 180 -366 11 -99 34 -138 89 -150 34 -8 89 16
109 47 31 50 4 242 -53 370 -65 145 -207 295 -348 366 -138 69 -298 99 -441
82z"/>
<path d="M12868 14509 c-116 -18 -226 -101 -276 -207 -23 -49 -27 -70 -27
-152 0 -88 3 -101 33 -162 136 -276 523 -270 655 10 28 59 32 77 32 152 -1
113 -33 188 -116 264 -86 80 -189 112 -301 95z m137 -228 c47 -27 77 -86 72
-144 -5 -61 -30 -96 -90 -125 -37 -19 -55 -22 -87 -17 -74 13 -130 79 -130
155 0 121 127 192 235 131z"/>
<path d="M20170 13969 c-797 -215 -857 -232 -882 -260 -32 -33 -36 -75 -14
-117 8 -15 297 -309 643 -654 497 -495 635 -627 660 -633 39 -8 79 10 104 45
10 14 63 196 119 405 55 209 110 412 120 450 11 39 70 256 130 483 102 385
109 416 96 445 -17 43 -38 58 -83 63 -27 3 -279 -61 -893 -227z m630 -405
c-56 -209 -114 -426 -129 -484 -16 -58 -50 -187 -77 -288 l-48 -183 -488 488
c-268 268 -485 489 -483 492 6 6 1319 359 1323 356 2 -2 -42 -173 -98 -381z"/>
<path d="M23965 14180 c-11 -4 -264 -253 -562 -552 -363 -364 -544 -552 -548
-570 -17 -70 30 -128 104 -128 l46 0 543 543 c328 326 550 555 559 576 37 86
-52 169 -142 131z"/>
<path d="M3446 12300 c-189 -32 -324 -223 -294 -416 12 -80 45 -141 108 -205
72 -72 144 -102 250 -102 108 0 178 29 256 107 78 78 107 148 107 256 0 108
-29 178 -107 256 -88 88 -199 124 -320 104z m149 -228 c33 -19 75 -92 75 -132
0 -14 -10 -46 -22 -70 -74 -146 -290 -93 -290 70 0 125 125 195 237 132z"/>
<path d="M14102 12245 c-22 -10 -38 -27 -48 -51 -32 -77 13 -137 113 -148 103
-12 134 -42 253 -254 109 -194 203 -260 354 -250 130 8 220 79 308 240 105
193 161 252 248 264 114 15 177 -35 285 -225 87 -154 140 -215 220 -252 48
-23 74 -29 130 -29 129 0 231 71 315 219 131 232 170 275 258 286 71 9 93 18
115 47 40 53 20 125 -42 154 -31 15 -45 16 -104 6 -154 -27 -255 -113 -367
-316 -83 -151 -116 -186 -175 -186 -51 0 -88 30 -131 108 -131 232 -192 307
-290 356 -74 37 -178 52 -254 37 -166 -33 -252 -114 -394 -373 -53 -98 -87
-128 -143 -128 -39 0 -50 5 -77 33 -17 19 -53 74 -80 123 -129 233 -218 314
-376 344 -67 13 -78 12 -118 -5z"/>
<path d="M10185 11925 l-130 -135 -132 125 c-125 118 -135 125 -173 125 -52 0
-76 -13 -95 -50 -18 -35 -19 -67 -2 -97 7 -12 66 -72 132 -133 66 -62 121
-116 123 -120 2 -4 -49 -63 -113 -131 -152 -161 -164 -192 -101 -255 27 -27
42 -34 72 -34 37 0 46 7 171 136 l131 137 129 -120 c71 -66 140 -124 152 -128
31 -10 85 2 104 23 45 50 39 122 -16 168 -17 14 -75 68 -129 118 l-97 92 124
134 c69 73 126 143 127 154 5 78 -35 126 -105 126 -41 0 -45 -3 -172 -135z"/>
<path d="M24127 11331 c-108 -36 -202 -132 -234 -240 -20 -72 -14 -189 15
-254 31 -70 111 -149 185 -183 54 -25 73 -29 152 -28 111 0 180 28 253 101 92
92 129 217 99 338 -29 118 -104 208 -213 257 -69 30 -180 34 -257 9z m193
-213 c55 -38 75 -73 75 -133 0 -153 -196 -212 -282 -85 -30 43 -31 121 -3 168
44 71 143 95 210 50z"/>
<path d="M12421 11113 c-16 -16 -226 -370 -467 -788 -483 -839 -471 -813 -411
-872 l27 -28 908 -3 c893 -2 908 -2 940 18 37 23 56 63 48 102 -7 38 -882
1548 -912 1576 -37 32 -95 30 -133 -5z m358 -785 c157 -271 303 -524 326 -563
23 -38 50 -85 59 -102 l17 -33 -691 0 c-380 0 -689 3 -687 8 69 126 682 1182
686 1182 3 0 134 -222 290 -492z"/>
<path d="M20515 10896 c-16 -7 -81 -68 -143 -135 -63 -66 -118 -121 -124 -121
-5 0 -64 52 -131 115 -67 63 -136 120 -154 126 -47 15 -99 -10 -119 -57 -26
-62 -14 -83 127 -217 71 -67 129 -125 129 -129 0 -4 -52 -62 -116 -130 -63
-68 -120 -134 -125 -148 -15 -35 -3 -83 27 -111 19 -18 37 -24 71 -24 46 0 46
0 174 135 l128 135 38 -35 c21 -20 79 -74 129 -122 98 -92 118 -103 168 -94
37 7 60 28 76 70 19 52 -2 85 -135 210 -69 65 -125 121 -125 125 0 4 54 64
119 135 73 78 122 139 126 157 17 76 -69 146 -140 115z"/>
<path d="M7091 10446 c-51 -29 -50 -11 -51 -753 l0 -693 29 -32 29 -33 694 -3
c673 -2 694 -2 725 17 21 14 35 32 42 58 15 52 15 1324 0 1376 -7 26 -21 44
-42 57 -31 19 -56 20 -717 20 -549 -1 -690 -3 -709 -14z m1269 -751 l0 -555
-555 0 -555 0 0 555 0 555 555 0 555 0 0 -555z"/>
<path d="M2715 10375 c-284 -53 -501 -238 -599 -512 -29 -84 -31 -95 -31 -243
1 -144 3 -161 28 -235 89 -254 278 -434 533 -507 103 -29 285 -31 384 -4 439
120 681 564 540 988 -41 122 -105 221 -203 315 -118 112 -260 180 -423 203
-94 13 -140 12 -229 -5z m240 -210 c86 -18 194 -71 256 -124 60 -52 133 -160
160 -236 27 -75 36 -213 20 -297 -55 -283 -341 -484 -628 -440 -216 33 -404
200 -458 407 -17 67 -19 208 -4 275 35 152 152 296 300 369 121 59 226 73 354
46z"/>
<path d="M16160 10373 c-68 -35 -80 -105 -26 -159 l34 -34 787 0 787 0 29 29
c23 24 29 38 29 73 0 36 -6 50 -31 74 l-30 29 -772 3 c-720 2 -774 1 -807 -15z"/>
<path d="M23135 9614 c-328 -73 -561 -330 -605 -666 -40 -301 128 -620 400
-762 302 -158 660 -105 900 134 121 120 193 261 220 433 25 152 0 299 -77 457
-40 81 -61 109 -142 190 -107 107 -198 162 -331 200 -101 29 -270 35 -365 14z
m284 -209 c156 -37 296 -148 369 -292 137 -275 34 -598 -238 -741 -94 -50
-162 -66 -270 -65 -429 5 -693 492 -460 851 131 204 368 301 599 247z"/>
<path d="M20643 8741 c-65 -41 -66 -148 -3 -278 47 -95 120 -156 322 -267 37
-20 83 -52 103 -70 29 -28 35 -40 35 -74 0 -60 -36 -95 -191 -182 -206 -117
-285 -209 -311 -364 -22 -135 27 -272 133 -371 33 -30 112 -84 181 -122 154
-86 188 -118 188 -177 0 -38 -5 -48 -42 -82 -24 -22 -85 -61 -136 -89 -230
-124 -324 -244 -326 -418 -1 -54 2 -61 32 -88 45 -41 102 -41 143 0 20 21 29
39 29 63 0 107 45 159 219 258 220 124 281 196 289 341 4 67 1 83 -23 138 -36
80 -105 143 -238 217 -190 106 -231 146 -243 234 -16 115 39 185 232 292 201
112 263 186 272 324 10 157 -64 254 -287 378 -171 95 -221 153 -221 255 0 73
-93 122 -157 82z"/>
<path d="M17437 8278 c-13 -13 -223 -368 -466 -790 -369 -642 -441 -774 -441
-806 0 -45 19 -75 57 -91 21 -8 266 -11 931 -9 l904 3 29 33 c34 38 37 76 10
130 -73 144 -868 1503 -892 1525 -38 35 -97 37 -132 5z m416 -892 c181 -313
331 -575 334 -583 4 -11 -115 -13 -685 -13 l-690 0 346 600 c283 491 348 597
356 583 5 -10 158 -274 339 -587z"/>
<path d="M8151 7786 c-54 -30 -64 -101 -31 -208 40 -131 110 -202 312 -315
140 -79 178 -116 178 -173 0 -55 -38 -89 -191 -174 -157 -88 -254 -179 -288
-271 -44 -117 -38 -241 15 -347 47 -92 123 -157 298 -254 50 -27 107 -65 128
-85 32 -30 38 -42 38 -77 0 -57 -37 -91 -191 -177 -223 -125 -310 -237 -313
-402 -1 -67 1 -75 27 -100 22 -22 37 -28 72 -28 64 0 93 32 105 114 15 109 52
146 254 257 109 60 188 130 224 198 23 44 27 63 27 136 0 70 -4 94 -25 135
-36 73 -105 133 -242 211 -140 79 -193 122 -219 179 -38 82 -13 185 57 243 19
16 89 59 157 97 196 110 277 211 277 344 0 150 -73 239 -296 363 -155 85 -213
150 -214 236 0 88 -84 140 -159 98z"/>
<path d="M14868 7311 c-152 -50 -249 -185 -249 -346 0 -316 365 -478 609 -270
26 23 55 64 79 112 34 68 37 82 37 158 0 76 -3 90 -37 158 -43 86 -93 136
-177 175 -74 34 -183 39 -262 13z m192 -213 c55 -38 74 -72 74 -133 0 -61 -18
-95 -75 -133 -28 -20 -43 -23 -87 -20 -88 8 -144 67 -144 153 0 121 135 198
232 133z"/>
<path d="M2603 6953 c-20 -4 -108 -89 -239 -230 l-39 -43 -120 116 c-66 63
-135 122 -153 130 -68 30 -142 -22 -142 -99 0 -44 -6 -37 183 -215 l88 -83
-89 -97 c-50 -53 -100 -106 -112 -117 -60 -54 -66 -121 -16 -171 65 -65 101
-48 251 115 61 65 114 120 118 120 5 1 63 -50 129 -111 132 -124 150 -137 192
-138 41 0 96 57 96 102 -1 46 -12 61 -120 162 -52 49 -108 102 -125 118 l-30
28 71 72 c172 179 184 194 184 235 0 47 -22 81 -66 99 -18 8 -35 13 -36 13 -2
-1 -13 -4 -25 -6z"/>
<path d="M11772 6148 c-326 -325 -550 -556 -559 -576 -38 -89 58 -174 145
-128 48 26 1100 1088 1107 1119 10 37 -1 74 -30 103 -19 19 -35 24 -72 24
l-48 0 -543 -542z"/>
<path d="M5365 5571 c-379 -103 -764 -207 -855 -231 -193 -51 -220 -69 -220
-142 l0 -43 643 -642 c434 -434 651 -644 670 -649 15 -3 39 -3 53 0 52 13 66
44 128 277 32 123 87 328 121 454 175 645 278 1043 277 1067 0 15 -6 36 -12
47 -13 26 -61 51 -92 50 -13 -1 -333 -85 -713 -188z m561 -88 c-3 -10 -48
-180 -101 -378 -97 -361 -126 -470 -206 -773 l-43 -163 -485 483 c-267 266
-487 484 -490 486 -2 1 -2 4 0 7 7 7 1290 353 1312 354 13 1 17 -4 13 -16z"/>
<path d="M19886 5005 l-132 -138 -104 100 c-145 136 -167 153 -201 153 -65 0
-109 -45 -109 -113 0 -28 16 -48 137 -163 l136 -131 -84 -89 c-175 -184 -172
-180 -166 -232 7 -61 41 -92 100 -92 41 0 45 3 173 136 l131 136 94 -89 c168
-158 175 -163 220 -163 58 0 99 42 99 102 0 42 -2 45 -135 173 l-136 130 103
110 c138 147 148 160 148 206 0 56 -33 90 -94 96 l-48 6 -132 -138z"/>
<path d="M15221 4390 c-162 -34 -281 -99 -402 -220 -83 -83 -102 -108 -142
-190 -57 -119 -79 -202 -81 -308 -1 -82 -1 -84 32 -113 36 -32 77 -37 121 -15
33 17 51 54 51 104 0 62 27 166 58 229 94 185 265 299 467 310 114 7 184 -8
287 -59 107 -54 192 -138 242 -239 37 -76 65 -184 66 -254 1 -90 100 -137 169
-79 39 33 46 73 31 176 -14 98 -54 216 -101 295 -55 94 -199 231 -294 280
-127 65 -202 85 -340 89 -66 2 -140 -1 -164 -6z"/>
<path d="M3025 4055 c-33 -7 -94 -26 -135 -42 -469 -183 -630 -774 -320 -1175
134 -174 359 -289 568 -292 82 -1 84 0 113 32 42 46 40 93 -5 138 -29 29 -41
34 -83 34 -134 1 -275 62 -379 166 -213 211 -221 541 -19 762 97 107 220 166
377 182 75 7 85 11 110 39 40 45 38 93 -6 137 -32 32 -38 34 -97 33 -35 0 -91
-6 -124 -14z"/>
<path d="M22068 4054 c-15 -8 -32 -23 -38 -34 -6 -12 -10 -258 -10 -715 0
-767 -3 -732 62 -754 21 -8 249 -11 700 -11 730 0 721 -1 747 56 8 18 11 220
11 717 0 641 -2 694 -18 713 -9 12 -27 27 -39 33 -15 8 -221 11 -705 11 -583
-1 -687 -3 -710 -16z m1262 -749 l0 -555 -550 0 -550 0 0 555 0 555 550 0 550
0 0 -555z"/>
<path d="M12106 3394 c-160 -36 -271 -97 -386 -213 -95 -96 -141 -167 -181
-280 -92 -260 -42 -538 135 -753 297 -359 875 -359 1172 0 178 216 227 491
134 754 -40 114 -85 183 -185 283 -101 101 -196 158 -325 195 -100 29 -270 35
-364 14z m283 -209 c207 -49 372 -220 416 -430 18 -88 18 -142 0 -228 -54
-254 -279 -438 -540 -440 -160 -1 -287 52 -400 167 -219 222 -217 564 4 785
132 132 335 189 520 146z"/>
<path d="M7418 2734 c-35 -19 -48 -43 -48 -92 0 -44 32 -87 72 -97 12 -3 371
-4 795 -3 l773 3 26 26 c16 16 28 41 31 67 5 37 2 45 -30 77 l-35 35 -778 0
c-668 -1 -783 -3 -806 -16z"/>
<path d="M17554 2736 c-43 -19 -69 -76 -54 -120 16 -50 43 -68 113 -78 107
-14 144 -52 277 -289 48 -85 113 -155 174 -187 44 -23 63 -27 141 -27 78 0 97
4 141 27 66 35 128 104 184 207 74 134 124 204 169 236 37 26 51 30 111 30 60
0 74 -4 111 -30 45 -32 95 -102 169 -236 89 -162 176 -229 311 -237 152 -9
244 62 366 281 98 176 156 227 259 227 69 0 118 78 90 145 -23 54 -71 71 -159
56 -154 -26 -250 -108 -364 -312 -86 -154 -118 -189 -176 -189 -36 0 -48 6
-79 38 -20 20 -60 80 -88 132 -71 128 -98 166 -163 228 -94 88 -220 126 -344
103 -154 -28 -251 -112 -366 -319 -85 -153 -113 -182 -172 -182 -60 0 -92 34
-178 189 -109 195 -204 280 -345 310 -67 14 -90 13 -128 -3z"/>
</g>
</svg>
